<?xml version="1.0" standalone="no"?><!DOCTYPE svg PUBLIC "-//W3C//DTD SVG 1.1//EN" "http://www.w3.org/Graphics/SVG/1.1/DTD/svg11.dtd"><svg t="1633686762835" class="icon" viewBox="0 0 1024 1024" version="1.1" xmlns="http://www.w3.org/2000/svg" p-id="4567" xmlns:xlink="http://www.w3.org/1999/xlink" width="200" height="200"><defs><style type="text/css"></style></defs><path d="M647.61016 708.732267c-30.44666-185.4254-135.604139-328.808278-135.604139-328.808278s-105.16952 143.382879-135.61016 328.808278c-30.44064 185.419379 99.118721 179.886359 99.11872 179.88636H548.503481c-0.006021 0 129.55334 5.53302 99.106679-179.88636z" fill="#CC7533" p-id="4568"></path><path d="M549.677516 897.667733c-1.017498 0-1.565381-0.024083-1.565381-0.024083l-72.489181 0.006021a32.60207 32.60207 0 0 1-1.29445 0.018062c-8.254374 0-50.983255-1.806209-81.267356-37.466792-28.182879-33.192098-36.786453-84.644967-25.581938-152.931703 30.44666-185.413358 136.176105-331.24064 137.241768-332.685607l7.285043-9.928128 7.285042 9.928128c1.065663 1.444967 106.789087 147.272248 137.235748 332.685607 11.210536 68.292756 2.606961 119.745626-25.581938 152.931703-30.278081 35.654563-73.000941 37.466792-81.267357 37.466792z m-37.671495-18.080151l37.671495 0.018062c6.869614 0 42.367639-1.499153 67.504046-31.096895 24.594544-28.965569 31.831421-75.493509 21.517968-138.313453-25.08222-152.763123-102.508373-278.095955-126.693509-314.352587-24.185136 36.250611-101.61731 161.589464-126.69953 314.352587-10.313452 62.813923-3.070555 109.347883 21.523989 138.313453 25.136406 29.597742 60.634431 31.096896 67.498024 31.096895l0.824836-0.012041 36.852681-0.006021z" p-id="4569"></path><path d="M862.549012 391.026152c-59.038946-143.930762-225.083725-255.662841-350.542991-255.662841S220.495955 247.09539 161.457008 391.026152s69.057385 143.894638 69.057385 143.894638h562.983255c0 0.006021 128.08429 0.042145 69.051364-143.894638z" fill="#FFC145" p-id="4570"></path><path d="M230.508373 543.957855c-2.281844 0-54.710066-0.451552-80.328128-38.640828-18.68222-27.839699-17.694826-67.443838 2.920037-117.716651 58.087676-141.618815 222.44064-261.268109 358.899718-261.268109 136.453057 0 300.806021 119.643274 358.893697 261.268109 20.620884 50.266792 21.602258 89.864911 2.926058 117.710631-25.624083 38.207338-78.112512 38.646849-80.334148 38.646848H230.508373z m281.497648-399.563499c-127.6508 0-287.554468 116.849671-342.192286 250.057573-18.188523 44.348448-19.747883 78.263029-4.635936 100.792474 20.331891 30.302164 64.879022 30.645343 65.336594 30.645343h562.971214c0.445532 0 45.215428-0.511759 65.396801-30.729633 15.057761-22.529445 13.474318-56.413923-4.690122-100.714205-54.637817-133.195861-214.541486-250.051552-342.186265-250.051552z" p-id="4571"></path><path d="M476.080527 320.421449m-59.50254 0a59.50254 59.50254 0 1 0 119.00508 0 59.50254 59.50254 0 1 0-119.00508 0Z" fill="#D99928" p-id="4572"></path><path d="M351.078833 437.530009m-45.197365 0a45.197366 45.197366 0 1 0 90.394731 0 45.197366 45.197366 0 1 0-90.394731 0Z" fill="#D99928" p-id="4573"></path><path d="M641.661712 464.478645m-45.197366 0a45.197366 45.197366 0 1 0 90.394732 0 45.197366 45.197366 0 1 0-90.394732 0Z" fill="#D99928" p-id="4574"></path><path d="M238.287112 285.766322a58.768015 58.768015 0 0 0 38.785325 14.594167c32.596049 0 59.026905-26.424835 59.026904-59.032926a58.63556 58.63556 0 0 0-8.657761-30.663405 482.956162 482.956162 0 0 0-89.154468 75.102164zM692.771402 208.225776a58.852305 58.852305 0 0 0-4.870743 23.462653c0 32.60207 26.430856 59.032926 59.038946 59.032926a58.671684 58.671684 0 0 0 33.595484-10.524177 483.269238 483.269238 0 0 0-87.763687-71.971402z" fill="#D99928" p-id="4575"></path></svg>